The Last Harbor (Rel 2011) DVDrip H264 AC3 NL Subs
.
Subs: Vobsubs
.
[IMG]http://img833.imageshack.us/img833/4459/71274.jpg[/IMG]
.
Verenigde Staten
Mystery / Thriller


geregisseerd door Paul Epstein
met Wade Williams, Samaire Armstrong en Tracey Needham

Ian Martin is een uitgerangeerde politie rechercheur uit Boston. Na wederom een mislukte drankgerelateerde arrestatie geeft zijn baas hem een laatste kans. Hij wordt overgeplaatst naar het slaperige badplaatsje Salem Harbor, Ians geboorteplaats, die hij jaren geleden achter zich heeft gelaten. Daar moet hij zijn verbroken relatie met zijn dochter Leanne weer opbouwen. Maar wanneer Alison Stone vermist wordt, moet Ian het mysterie zien te ontrafelen. Wanneer de druk toeneemt, krijgt hij moeite om zijn oude gewoontes onder controle te houden en moet hij beslissen hoe graag hij wil veranderen om zijn schijnbaar verloren relatie met zijn dochter de herstellen.
. 
http://www.moviemeter.nl/film/71274
.
PLOT
. 
http://www.imdb.com/title/tt1332106/
.
INFO
.
Source: Retail DVD
Format                           : AVC
Format/Info                      : Advanced Video Codec
Codec ID                         : H264
Duration                         : 1h 31mn
Bit rate                         : 1 899 Kbps
Width                            : 720 pixels
Height                           : 390 pixels
Display aspect ratio             : 16:9
Frame rate                       : 25.000 fps
Color space                      : YUV
Chroma subsampling               : 4:2:0
Bits/(Pixel*Frame)               : 0.270
Stream size                      : 1.22 GiB (89%)

Audio
ID                               : 1
Format                           : AC-3
Format/Info                      : Audio Coding 3
Mode extension                   : CM (complete main)
Codec ID                         : 2000
Duration                         : 1h 31mn
Bit rate mode                    : Constant
Bit rate                         : 224 Kbps
Channel(s)                       : 2 channels
Channel positions                : Front: L R
Sampling rate                    : 48.0 KHz
Bit depth                        : 16 bits
Stream size                      : 147 MiB (10%)
Alignment                        : Aligned on interleaves
Interleave, duration             : 32 ms (0.80 video frame)
Interleave, preload duration     : 32 ms

.
Enjoy
